<?xml version="1.0" encoding="utf-8"?>
<!-- Generator: Adobe Illustrator 26.4.1, SVG Export Plug-In . SVG Version: 6.00 Build 0)  -->
<svg version="1.1" baseProfile="basic" id="Layer_1"
	 xmlns="http://www.w3.org/2000/svg" xmlns:xlink="http://www.w3.org/1999/xlink" x="0px" y="0px" viewBox="0 0 9 9"
	 xml:space="preserve">
<style type="text/css">
	.st0{fill:#F92F3C;}
	.st1{fill:#DA2934;}
	.st2{fill:#9C5F00;}
</style>
<g>
	<rect x="1" y="4" class="st0" width="1" height="1"/>
	<rect x="1" y="5" class="st0" width="1" height="1"/>
	<rect x="2" y="4" class="st0" width="1" height="1"/>
	<rect x="3" y="4" class="st0" width="1" height="1"/>
	<rect x="2" y="5" class="st0" width="1" height="1"/>
	<rect x="3" y="5" class="st1" width="1" height="1"/>
	<rect x="4" y="4" class="st0" width="1" height="1"/>
	<rect x="5" y="4" class="st0" width="1" height="1"/>
	<rect x="4" y="5" class="st0" width="1" height="1"/>
	<rect x="5" y="5" class="st1" width="1" height="1"/>
	<rect x="6" y="4" class="st0" width="1" height="1"/>
	<rect x="7" y="4" class="st0" width="1" height="1"/>
	<rect x="6" y="5" class="st0" width="1" height="1"/>
	<rect x="2" y="6" class="st0" width="1" height="1"/>
	<rect x="3" y="6" class="st1" width="1" height="1"/>
	<rect x="2" y="7" class="st0" width="1" height="1"/>
	<rect x="3" y="7" class="st0" width="1" height="1"/>
	<rect x="4" y="6" class="st0" width="1" height="1"/>
	<rect x="5" y="6" class="st1" width="1" height="1"/>
	<rect x="4" y="7" class="st0" width="1" height="1"/>
	<rect x="5" y="7" class="st0" width="1" height="1"/>
	<rect x="6" y="6" class="st0" width="1" height="1"/>
	<rect x="6" y="7" class="st0" width="1" height="1"/>
	<rect x="7" y="5" class="st0" width="1" height="1"/>
	<rect x="2" y="3" class="st2" width="1" height="1"/>
	<rect x="3" y="2" class="st2" width="1" height="1"/>
	<rect x="5" y="2" class="st2" width="1" height="1"/>
	<rect x="6" y="3" class="st2" width="1" height="1"/>
</g>
</svg>
